<svg xmlns="http://www.w3.org/2000/svg" version="1.1" xmlns:xlink="http://www.w3.org/1999/xlink"
    xmlns:svgjs="http://svgjs.dev/svgjs" width="1000" height="1125" viewBox="0 0 1000 1125">
    <g transform="matrix(1,0,0,1,0,0)"><svg viewBox="0 0 320 360" data-background-color="#010536"
            preserveAspectRatio="xMidYMid meet" height="1125" width="1000" xmlns="http://www.w3.org/2000/svg"
            xmlns:xlink="http://www.w3.org/1999/xlink">
            <g id="tight-bounds" transform="matrix(1,0,0,1,0,0)"><svg viewBox="0 0 320 360" height="360" width="320">
                    <g><svg></svg></g>
                    <g><svg viewBox="0 0 320 360" height="360" width="320">
                            <g>
                                <path xmlns="http://www.w3.org/2000/svg"
                                    d="M219.58 41.008c0.707 0 6.365 2.829 9.547 3.89-1.061 0.354-3.536-0.707-6.365-1.768 0.707 0 2.122 0.354 3.536 1.06-0.707-0.707-6.011-2.475-6.718-3.182M166.895 30.047c1.061-0.354 13.436 1.414 19.094 1.768 0.354-0.354-0.707-0.354-2.122-0.707 1.768-0.354 5.304 0.707 7.779 1.06-7.425 0.354-15.558-1.768-22.629-1.06-2.475 0-0.707-0.707-2.122-1.061M156.641 30.047c6.365 0 11.315 0 2.121 0.707-1.061-0.354-2.475-0.354-2.121-0.707M256.707 59.395c0.707 0 3.536 3.182 4.95 4.243-0.354 0.354-3.182-2.475-4.596-3.536 0.354 0.354 0 0-0.354-0.707M249.635 54.798c-2.829-2.475-3.889-2.475-4.243-3.889 2.475 1.414 4.243 2.829 4.243 3.889M204.022 32.522c0.354-0.354 1.061 0.354 2.829 0.707-2.122-0.354-1.768 0-1.061 0.707-2.475-0.354-3.182-0.707-2.475-1.414 1.414 0.707 1.768 0.354 0.707 0M103.602 36.765c0-0.354 1.414-1.061 2.475-1.414-1.061 0.707-0.707 1.061 1.061 0.353 0 0.354-2.122 1.061-3.536 1.768 0.707-0.354 1.414-1.414 0-0.707M211.094 28.986c-1.061 0.354-4.95-1.768-8.84-2.475-2.122-0.707 8.486 1.768 8.84 2.475M2.475 203.66c2.122 8.84 0.707 8.486 0 0M2.829 150.621c0.354-1.414 0.707-5.304 1.06-4.95-1.061 8.486-2.829 12.376-3.182 18.74 1.061-5.657-0.354 3.182-0.707 5.304 0.354 2.829 0.354-1.768 1.061-1.06 0.707 1.061-1.414 15.912-0.707 7.779-0.707 7.425 0 15.558 1.414 17.679-1.768 11.315 7.072 36.773 8.84 42.077 0.354 0.354 0-1.768 0.707-0.353 0.707 4.597 3.889 7.779 4.95 12.729 1.061 1.414 5.304 9.193 6.011 10.962 1.414 2.829 2.122 2.475 3.536 5.303 4.243 8.133 10.961 15.912 17.326 23.337 20.508 24.044 51.978 43.845 86.984 50.918 35.006 7.425 71.779 2.122 100.419-11.669 1.768-1.061 1.414-1.414 3.536-2.122 9.901-3.182 21.923-13.436 28.641-17.326 3.182-3.536 11.669-9.547 12.73-13.082 6.011-4.95 12.022-13.083 15.204-18.387 1.768-2.829 3.182-2.829 3.889-4.597-0.354 0 5.657-7.425 7.426-11.668-0.707 0-1.768 2.122-1.768 0 12.729-24.398 19.801-57.282 15.911-79.912 0.707 27.934-6.365 59.05-19.801 78.851-6.011 12.729-18.387 26.519-29.701 36.42-1.768 1.768-3.536 3.889-5.658 5.304-6.718 5.657-14.144 10.254-21.922 14.497-18.387 10.254-38.895 19.094-62.94 19.447 41.37-3.536 78.497-24.398 99.006-49.856-15.558 15.204-22.276 21.215-39.602 30.055-1.414 2.475-13.083 7.425-20.862 9.547 4.597-2.122 14.144-5.657 17.326-8.486-25.812 12.376-54.453 19.448-81.326 15.558 10.254 0 24.751 0.354 38.541-2.121 2.122-0.707 3.182-1.414 5.658-1.768 26.873-6.011 52.685-19.094 71.072-37.481-10.608 9.547-26.519 20.862-36.774 24.398 9.547-5.304 26.873-15.558 32.53-23.337-11.315 11.315-32.53 22.63-45.966 27.58-2.122 0.354 1.414-1.414-2.122 0-4.243 1.061-2.475 1.061-3.536 1.768-16.265 4.597-35.006 8.486-50.563 7.072-2.829-0.354-3.889-1.061-6.365-1.061-2.829-0.354-5.304-0.354-8.486-0.354-12.376-1.414-25.812-6.365-35.713-10.607-5.304-2.475-10.608-4.243-15.912-7.426-4.243-2.475-7.779-5.304-11.314-8.132-13.436-9.901-24.751-19.801-35.36-33.945-19.094-26.519-28.994-59.757-27.58-92.641 1.414-32.884 14.497-65.061 35.359-88.752-1.061 1.061 1.414-2.475 3.536-4.596 0 0.707-0.354 1.768 2.122-0.707 2.122-2.475-0.707-0.707 0.353-2.122 21.923-24.044 60.111-43.492 99.36-44.199 1.414-1.061 3.889-2.475 6.718-1.768 0 0.354-1.768 0.354-1.768 0.354 3.889-0.354 7.425-0.354 9.193 0.353 0.354-0.354-1.414-0.707 0-0.707 2.475 0.707 3.182 0 4.597 0.707-1.061 0-2.122 0-2.829 0.354 8.84 0 14.497 2.122 23.337 2.829-4.597-1.061-5.657-1.061-9.193-2.122 3.889 0.707 5.657 1.414 7.425 1.061-0.707 0-0.354-1.061 0.354-0.707 7.072 1.768 7.779 2.475 15.204 4.95 0.707-0.707-3.182-1.061-4.243-2.122 7.072 2.475 13.436 4.243 17.68 7.072-1.414-1.061-5.657-2.475-8.84-3.889-0.354 0.354 1.061 0.707 1.414 1.414-3.536-1.768-8.486-3.536-13.436-4.243 4.243 1.061 7.072 2.475 8.84 3.182-3.889-0.707-8.84-3.182-14.498-4.243 9.193 2.829 26.519 9.193 37.127 14.851-3.889-2.475-8.486-4.243-10.961-5.657 2.122 0.354 4.597 1.768 4.597 1.06 2.475 1.061 5.657 3.536 7.425 3.89-3.182-2.122-9.547-5.304-11.668-6.365 26.519 12.022 50.21 32.177 65.414 57.989 1.414 2.475 3.536 8.133 5.304 8.84-0.354-1.768-1.768-2.829-3.182-5.657 0.707 0 0.707-1.061 0-2.122-1.414-1.768 0 1.414-1.415-0.354-6.365-11.669-14.144-21.923-26.165-33.237 6.718 6.365 1.768 1.768 0.353-0.354 9.193 8.133 19.801 21.923 24.398 28.995-0.707-1.061-1.061-1.768-0.707-1.768 8.486 14.497 13.79 27.58 19.094 46.32 0.354 0.354 0-1.414 0.707-0.353 3.536 14.851 4.597 27.227 4.243 38.541 2.829-19.094-3.536-48.796-14.851-72.133-1.414-2.829-1.414-0.707-2.829-3.889 0-1.061-1.061-3.182-1.768-4.597-14.144-23.337-31.47-39.956-51.978-53.038 1.414 0.707 4.243 2.829 4.244 2.475-38.188-25.105-82.387-28.641-118.807-20.862-2.475 1.061-3.536 2.122-6.365 3.536 5.304-1.768 8.486-2.122 13.437-3.183 1.061-1.061-4.597 0.354-2.122-0.707 0.354 0.354 4.95-0.707 6.011-0.353 0 0.354-1.414 0.707-1.768 1.06 11.669-2.475 23.691-2.829 33.945-2.121-6.011 0.354-16.972-0.707-20.508 1.061 3.536-0.354 8.486-0.707 11.668-0.354-4.243 0-12.022 0.354-15.558 0.707-0.354-0.354 5.657-1.061 1.768-1.06-1.768 0.354-4.597 0.354-5.657 1.414-30.409 2.829-60.111 18.74-80.973 37.481-4.243 3.536-9.193 7.425-12.375 11.314-7.779 8.84-12.729 17.68-18.387 25.459 3.536-7.425 11.315-18.74 20.508-28.287 9.193-9.547 19.094-17.68 24.398-21.923 0 1.414 8.486-5.304 11.669-7.425-2.122 1.768 1.414-0.707 2.121-0.354 11.315-6.718 20.508-9.193 30.763-13.083-2.475 0.707-4.597 1.414-4.951 1.061 2.475-0.707 3.889-1.414 3.536-1.768-9.901 2.829-25.459 9.547-37.834 16.972 22.276-15.204 50.564-24.398 78.497-24.751 27.934-0.707 55.16 6.365 76.729 17.68 14.497 6.365 28.287 18.033 39.249 29.348 3.182 2.829 0.707-0.707 5.304 4.243-1.414-0.707-2.475-1.414-0.707 0.707 2.829 3.182-0.707-2.475 3.889 3.182-0.354 0-1.768-1.768-1.768-1.061 12.376 10.961 21.923 30.762 27.58 43.846-1.414-5.304-4.95-12.729-7.779-18.033 8.486 15.558 11.315 24.751 14.851 38.541 1.414 1.061-0.707-4.95 0.707-2.121 0.354 2.122 0.707 8.84 2.122 9.9-1.061-6.718-2.829-14.851-4.243-16.265 1.061 0.707-1.768-8.133-3.536-10.254-0.707-5.657-5.657-15.558-9.901-22.984-15.204-29.702-42.431-54.099-72.839-67.536 0-0.707-1.768-1.414-2.476-2.121-30.055-12.729-66.122-16.265-100.773-8.133-35.006 8.486-67.889 28.641-91.227 57.636 1.061-3.536 9.901-10.254 10.255-13.083-10.254 10.961-21.215 25.459-28.641 41.016-7.779 15.558-12.022 31.47-13.79 43.138"
                                    fill="#ffff" fill-rule="nonzero" stroke="none" stroke-width="1"
                                    stroke-linecap="butt" stroke-linejoin="miter" stroke-miterlimit="10"
                                    stroke-dasharray="" stroke-dashoffset="0" font-family="none" font-weight="none"
                                    font-size="none" text-anchor="none" style="mix-blend-mode: normal"
                                    data-fill-palette-color="tertiary"></path>
                            </g>
                            <g transform="matrix(1,0,0,1,48,127.95854785010607)"><svg
                                    viewBox="0 0 224 104.08290429978787" height="104.08290429978787" width="224">
                                    <g><svg viewBox="0 0 224.00000000000003 104.08290429978788"
                                            height="104.08290429978787" width="224">
                                            <g><svg viewBox="0 0 224.00000000000003 104.08290429978788"
                                                    height="104.08290429978788" width="224.00000000000003">
                                                    <g id="textblocktransform"><svg
                                                            viewBox="0 0 224.00000000000003 104.08290429978788"
                                                            height="104.08290429978788" width="224.00000000000003"
                                                            id="textblock">
                                                            <g><svg viewBox="0 0 224.00000000000003 38.4331840678765"
                                                                    height="38.4331840678765"
                                                                    width="224.00000000000003">
                                                                    <g transform="matrix(1,0,0,1,0,0)"><svg
                                                                            width="224.00000000000003"
                                                                            viewBox="0.6800000071525574 -35.54999923706055 207.17001342773438 35.54999923706055"
                                                                            height="38.4331840678765"
                                                                            data-palette-color="#ffff">
                                                                            <path
                                                                                d="M10.01-7.42L20.68-7.42 22.75 0 29.98 0 18.55-35.55 12.33-35.55 0.68 0 7.91 0 10.01-7.42ZM19.07-13.26L11.69-13.26 15.43-26.34 19.07-13.26ZM33.05-35.55L33.05 0 42.6 0Q44.97 0 47.06-0.59 49.14-1.17 50.88-2.27L50.88-2.27Q52.37-3.2 53.61-4.58 54.86-5.96 55.78-7.59L55.78-7.59Q56.76-9.42 57.3-11.62 57.83-13.82 57.83-16.28L57.83-16.28 57.83-19.21Q57.83-21.78 57.26-24.05 56.69-26.32 55.64-28.2L55.64-28.2Q54.73-29.74 53.53-31.04 52.32-32.35 50.78-33.25L50.78-33.25Q49.02-34.35 46.87-34.95 44.72-35.55 42.26-35.55L42.26-35.55 33.05-35.55ZM39.96-5.52L39.96-29.98 42.26-29.98Q43.5-29.98 44.57-29.7 45.63-29.42 46.51-28.91L46.51-28.91Q47.65-28.22 48.52-27.15 49.39-26.07 49.92-24.71L49.92-24.71Q50.36-23.56 50.6-22.18 50.83-20.8 50.83-19.26L50.83-19.26 50.83-16.28Q50.83-14.65 50.6-13.24 50.36-11.84 49.92-10.69L49.92-10.69Q49.39-9.38 48.64-8.39 47.9-7.4 46.97-6.76L46.97-6.76Q46.07-6.15 44.97-5.83 43.87-5.52 42.6-5.52L42.6-5.52 39.96-5.52ZM79.8 0L86.64 0 86.64-35.55 79.76-35.55 79.73-12.72 69.92-35.55 63.01-35.55 63.01 0 69.92 0 69.92-22.92 79.8 0ZM139.88 0L146.67 0 146.67-35.55 139.88-35.55 139.88-20.97 129.82-20.97 129.82-35.55 123.01-35.55 123.01 0 129.82 0 129.82-15.41 139.88-15.41 139.88 0ZM153.06-35.55L153.06 0 162.61 0Q164.98 0 167.07-0.59 169.15-1.17 170.89-2.27L170.89-2.27Q172.38-3.2 173.62-4.58 174.87-5.96 175.79-7.59L175.79-7.59Q176.77-9.42 177.31-11.62 177.84-13.82 177.84-16.28L177.84-16.28 177.84-19.21Q177.84-21.78 177.27-24.05 176.7-26.32 175.65-28.2L175.65-28.2Q174.74-29.74 173.53-31.04 172.33-32.35 170.79-33.25L170.79-33.25Q169.03-34.35 166.88-34.95 164.73-35.55 162.27-35.55L162.27-35.55 153.06-35.55ZM159.97-5.52L159.97-29.98 162.27-29.98Q163.51-29.98 164.57-29.7 165.64-29.42 166.52-28.91L166.52-28.91Q167.66-28.22 168.53-27.15 169.4-26.07 169.93-24.71L169.93-24.71Q170.37-23.56 170.61-22.18 170.84-20.8 170.84-19.26L170.84-19.26 170.84-16.28Q170.84-14.65 170.61-13.24 170.37-11.84 169.93-10.69L169.93-10.69Q169.4-9.38 168.65-8.39 167.91-7.4 166.98-6.76L166.98-6.76Q166.08-6.15 164.98-5.83 163.88-5.52 162.61-5.52L162.61-5.52 159.97-5.52ZM183.07-35.55L183.07 0 192.61 0Q194.98 0 197.07-0.59 199.15-1.17 200.89-2.27L200.89-2.27Q202.38-3.2 203.62-4.58 204.87-5.96 205.8-7.59L205.8-7.59Q206.77-9.42 207.31-11.62 207.85-13.82 207.85-16.28L207.85-16.28 207.85-19.21Q207.85-21.78 207.27-24.05 206.7-26.32 205.65-28.2L205.65-28.2Q204.75-29.74 203.54-31.04 202.33-32.35 200.79-33.25L200.79-33.25Q199.03-34.35 196.88-34.95 194.74-35.55 192.27-35.55L192.27-35.55 183.07-35.55ZM189.98-5.52L189.98-29.98 192.27-29.98Q193.52-29.98 194.58-29.7 195.64-29.42 196.52-28.91L196.52-28.91Q197.67-28.22 198.53-27.15 199.4-26.07 199.94-24.71L199.94-24.71Q200.38-23.56 200.61-22.18 200.84-20.8 200.84-19.26L200.84-19.26 200.84-16.28Q200.84-14.65 200.61-13.24 200.38-11.84 199.94-10.69L199.94-10.69Q199.4-9.38 198.65-8.39 197.91-7.4 196.98-6.76L196.98-6.76Q196.08-6.15 194.98-5.83 193.88-5.52 192.61-5.52L192.61-5.52 189.98-5.52Z"
                                                                                opacity="1"
                                                                                transform="matrix(1,0,0,1,0,0)"
                                                                                fill="#ffff" class="wordmark-text-0"
                                                                                data-fill-palette-color="primary"
                                                                                id="text-0"></path>
                                                                        </svg></g>
                                                                </svg></g>
                                                            <g transform="matrix(1,0,0,1,0,56.57948879189253)"><svg
                                                                    viewBox="0 0 224.00000000000003 47.503415507895355"
                                                                    height="47.503415507895355"
                                                                    width="224.00000000000003">
                                                                    <path
                                                                        d="M224 0l-7.917 23.752 7.917 23.751h-224l7.917-23.751-7.917-23.752z"
                                                                        data-fill-palette-color="tertiary" opacity="1"
                                                                        fill="#ffff"></path>
                                                                    <g
                                                                        transform="matrix(1,0,0,1,78.89997032969674,9.073152362008013)">
                                                                        <svg width="66.20005934060654"
                                                                            viewBox="4.650000095367432 -32.25 73.4000015258789 32.54999923706055"
                                                                            height="29.357110783879328"
                                                                            data-palette-color="#010536">
                                                                            <path
                                                                                d="M16.25-32.25Q23.1-32.25 26.75-28.35 30.4-24.45 30.4-17.15L30.4-17.15Q30.4-8.7 26.45-4.2 22.5 0.3 15.1 0.3L15.1 0.3Q13.05 0.3 10.13 0.23 7.2 0.15 4.7 0L4.7 0 4.65 0 4.9-9.65 4.65-32.05 4.7-32.05 16.25-32.25ZM15.75-3.05Q20.85-3.05 23.58-6.38 26.3-9.7 26.3-16.3L26.3-16.3Q26.3-28.9 15.95-28.9L15.95-28.9Q12.8-28.9 8.7-28.7L8.7-28.7 8.5-10 8.65-3.35Q10.2-3.2 12.38-3.13 14.55-3.05 15.75-3.05L15.75-3.05ZM45.35-3L52-3.2 52.3-2.9 51.95 0 36.8 0 36.95-7.5 36.8-24.9 52.05-24.9 52.3-24.6 52-21.7 45.7-21.9 40.5-21.85 40.45-14.3 45.4-14.25 49.75-14.4 50-14.05 49.7-11.1 45.1-11.25 40.45-11.2 40.4-7.8 40.45-3.05 45.35-3ZM78.05-24.9L68.55 0 64.1 0 55.4-24.9 59.25-24.9 59.85-22.15 66.3-3.7 66.55-3.7 73.7-22 74.3-24.9 78.05-24.9Z"
                                                                                opacity="1"
                                                                                transform="matrix(1,0,0,1,0,0)"
                                                                                fill="#000" class="slogan-text-1"
                                                                                data-fill-palette-color="quaternary"
                                                                                id="text-1"></path>
                                                                        </svg></g>
                                                                </svg></g>
                                                        </svg></g>
                                                </svg></g>
                                        </svg></g>
                                </svg></g>
                        </svg></g>
                    <defs></defs>
                </svg>
                <rect width="320" height="360" fill="none" stroke="none" visibility="hidden"></rect>
            </g>
        </svg></g>
</svg>